<?xml version="1.0" encoding="utf-8" ?><svg xmlns="http://www.w3.org/2000/svg" xmlns:xlink="http://www.w3.org/1999/xlink" width="419" height="345" viewBox="0 0 419 345"><clipPath id="cl_3"><rect width="419" height="345"/></clipPath><g clip-path="url(#cl_3)"><path fill="#21343B" transform="translate(-289 -327)" d="M0 0L511.914 0L1024 0L1024 1024L511.99 1024L0 1024L0 0Z"/><path fill="#FEFEFE" transform="translate(-289 -327)" d="M511.914 0L1024 0L1024 1024L511.99 1024L511.984 616.517C512.957 616.488 513.833 616.424 514.784 616.219C518.634 615.389 521.858 612.964 524.39 610.043C528.311 605.523 531.448 600.103 534.794 595.141C541.52 585.183 548.177 575.179 554.762 565.128L619.919 467.39L619.883 609.026L619.944 650.909C619.945 656.288 619.592 661.757 619.76 667.119C619.795 668.238 619.999 669.541 620.592 670.518C621.609 672.193 622.994 672.931 624.841 673.337C629.738 674.412 636.401 673.147 641.507 673.154C660.741 673.181 681.432 674.032 700.499 672.998C702.591 672.884 705.025 672.746 706.834 671.639C708.992 663.375 707.823 652.574 707.824 644.044L707.836 602.879L707.696 423.994L707.744 360.379C707.77 352.509 708.849 338.507 707.503 331.262C707.252 329.91 706.318 328.564 705.05 327.96C701.878 326.451 675.165 327.34 669.543 327.344C658.754 327.354 634.639 325.607 625.334 330.025C622.889 331.186 620.745 333.798 619.116 335.918C611.516 345.816 604.991 356.909 598.108 367.328L556.326 430.671C550.58 439.314 543.704 451.881 536.211 458.728C529.261 465.08 520.561 468.507 511.886 471.77L511.998 297.876L511.914 0Z"/><path fill="#FEFEFE" transform="translate(-289 -327)" d="M511.336 483.261C532.866 479.069 544.999 468.485 556.948 450.756L605.412 377.468C610.752 369.298 616.146 361.163 621.594 353.065C623.781 349.759 625.586 345.978 628.076 342.911C629.687 340.927 631.127 340.025 633.639 339.551C640.58 338.24 648.599 338.97 655.689 338.973L696.45 338.981L696.492 661.618C674.84 661.485 653.081 661.177 631.438 661.694L631.475 429.783C606.549 466.5 581.824 503.352 557.301 540.339L531.59 578.941C527.03 585.772 522.668 592.85 517.791 599.455C516.083 601.768 514.495 603.785 511.939 605.198C512.264 597.257 511.919 589.177 511.881 581.223C497.9 575.065 487.797 564.656 475.454 556.026C477.411 553.554 479.057 550.75 480.771 548.101C488.727 553.459 506.181 569.579 514.024 571.461C515.477 571.81 517.098 571.805 518.295 570.772C519.255 569.944 520.012 568.286 520.121 567.026C520.774 559.482 505.825 562.133 502.705 556.82C502.164 555.898 502.244 554.206 502.73 553.244C504.787 549.177 517.403 551.561 521.74 550.31C523.572 549.782 524.785 549.102 525.737 547.38C525.871 546.344 525.901 545.561 525.572 544.569C522.482 535.25 509.229 543.227 502.417 539.869C501.616 538.813 501.282 538.542 501.457 537.135C501.687 535.287 502.94 533.57 504.493 532.64C506.215 531.608 508.734 531.323 510.658 530.741C514.494 529.58 520.657 527.639 523.67 524.985C524.795 523.994 525.597 522.611 525.546 521.07C525.493 519.454 524.569 517.36 523.322 516.312C519.207 512.854 511.238 519.896 506.729 520.511C506.04 520.306 505.548 520.327 505.099 519.711C503.864 518.012 504.401 515.893 504.717 513.986L504.843 513.261C510.319 508.03 523.599 503.093 526.663 496.607C527.198 495.474 527.44 494.166 526.908 492.983C526.242 491.502 524.491 490.061 522.917 489.669C519.044 488.707 514.01 493.672 511.118 495.894C511.513 491.694 511.586 487.471 511.336 483.261Z"/><path fill="#FEFEFE" transform="translate(-289 -327)" d="M464.303 520.633C467.445 505.353 472.301 490.368 485.94 481.299C493.648 476.175 502.643 474.126 511.551 472.153C511.45 475.802 511.108 479.627 511.336 483.261C501.411 483.886 492.141 486.388 485.326 494.101C482.126 497.722 479.747 502.045 477.948 506.511C475.565 512.427 473.185 528.382 465.408 529.063C464.655 529.129 464.453 528.773 463.887 528.358C462.843 525.819 463.679 523.188 464.303 520.633Z"/><path fill="#FEFEFE" transform="translate(-289 -327)" d="M472.894 559.37C477.32 562.163 482.512 565.388 485.927 569.373C492.98 577.603 503.085 601.774 511.939 605.198C511.96 608.962 512.086 612.756 511.984 616.517C508.757 615.667 505.166 614.854 502.528 612.708C495.747 607.194 491.222 597.896 486.589 590.587C480.907 581.625 475.34 572.477 469.129 563.872L472.894 559.37Z"/><path fill="#FEFEFE" transform="translate(-289 -327)" d="M327.752 400.01C341.105 409.921 355.744 411.911 368.705 420.293C374.738 424.195 379.672 429.942 381.017 437.173C382.725 446.356 378.639 454.221 373.532 461.441C380.407 467.489 383.32 473.306 385.188 482.232C382.55 482.122 377.558 482.868 375.314 481.44C374.08 480.655 374.135 480.225 373.913 478.862C373.849 478.466 373.809 478.066 373.742 477.67C373.056 473.618 369.653 471.078 366.528 468.799C362.285 472.617 357.926 476.389 353.899 480.432C348.404 485.95 344.299 492.468 344.439 500.547C344.633 511.799 351.36 519.787 359.033 527.227C356.989 529.634 355.268 532.171 353.528 534.799C351.754 533.434 350.073 531.841 348.512 530.239C340.641 522.156 335.198 510.893 335.428 499.476C335.689 486.515 343.475 477.49 352.325 468.945L357.049 464.727C351.787 463.633 346.613 463.211 341.243 463.624C334.353 464.153 327.134 466.175 322.615 471.772C319.173 476.035 318.09 481.72 318.71 487.072C319.823 496.676 325.308 503.888 332.741 509.621C333.736 514.001 335.582 517.822 337.571 521.816C326.68 517.62 319.042 512.341 313.573 501.726C309.214 493.266 307.569 483.072 310.621 473.901C312.901 467.049 317.845 461.765 324.206 458.508C336.403 452.264 352.293 452.795 365.031 456.945C368.707 451.736 372.488 445.965 371.364 439.251C368.821 424.054 338.362 419.873 327.07 411.76C325.535 410.657 323.829 408.973 323.678 406.96C323.459 404.047 325.924 401.949 327.752 400.01Z"/><path fill="#FEFEFE" transform="translate(-289 -327)" d="M331.983 327.244L369.745 327.192C376.778 327.185 384.222 326.712 391.19 327.622C395.311 328.16 400.299 329.014 403.393 331.93C408.293 336.549 411.687 342.831 415.308 348.453L429.111 369.838L467.923 429.199C477.235 443.481 486.223 458.17 496.545 471.741C492.867 473.123 489.415 474.701 485.921 476.499L482.121 471.244C461.015 439.739 440.635 407.699 419.908 375.94L406.105 354.634C403.146 350.058 400.2 344.506 396.307 340.669C394.771 339.155 392.755 338.935 390.692 338.713C384.199 338.014 377.297 338.525 370.747 338.581C357.996 338.774 345.244 338.817 332.492 338.709L332.486 345.308C328.621 345.465 325.179 346.206 321.481 347.257L321.43 330.508C322.321 329.419 323.356 328.449 324.345 327.449L331.983 327.244Z"/><path fill="#FEFEFE" transform="translate(-289 -327)" d="M406.904 583.584L407.529 584.232C407.004 604.448 407.444 624.789 407.478 645.016C407.491 652.93 408.556 663.528 406.907 671.034C405.982 671.647 405.13 671.965 404.057 672.207C395.403 674.161 375.485 672.945 365.344 672.967C353.381 672.992 340.902 673.747 328.995 672.902C326.585 672.731 323.886 672.483 321.791 671.213C320.056 665.154 321.258 648.678 321.297 641.816L321.322 598.467L321.425 585.407C325.009 587.695 328.434 589.624 332.551 590.78L332.512 661.751L396.079 661.653C395.539 636.445 396.099 611.109 396.01 585.885C399.839 585.496 403.236 584.701 406.904 583.584Z"/><path fill="#FEFEFE" transform="translate(-289 -327)" d="M305.806 494.949C307.512 496.574 308.882 501.439 309.99 503.757C303.859 509.54 299.237 516.91 298.734 525.53C298.357 531.976 300.526 537.474 304.819 542.216C305.155 531.273 309.184 521.422 316.029 512.957C318.229 515.286 320.654 517.398 323.02 519.556C315.988 528.008 314.4 538.544 314.514 549.188C316.75 550.176 319.173 550.982 321.578 551.439C332.066 553.432 341.776 550.528 350.445 544.626C350.401 548.445 350.472 552.122 351.122 555.894C339.688 561.128 329.778 562.695 317.371 560.455C319.105 563.373 320.994 566.06 323.053 568.758C328.605 574.89 335.597 578.831 344 579.276C350.716 579.632 355.835 577.322 360.788 573.007C363.437 575.051 366.11 577.009 368.872 578.896C365.234 582.647 360.999 585.714 356.043 587.466C347.185 590.596 337.547 589.172 329.228 585.144C316.426 578.945 310.186 568.461 305.626 555.507C301.957 553.2 298.829 550.798 296.09 547.403C290.593 540.558 288.088 531.785 289.143 523.07C290.432 511.49 296.955 502.139 305.806 494.949Z"/><path fill="#FEFEFE" transform="translate(-289 -327)" d="M460.219 513.988L460.757 514.28C460.184 518.166 459.582 522.047 458.951 525.924C440.801 542.037 431.374 569.245 407.773 579.162C398.004 583.267 386.799 582.949 377.087 578.862C368.041 575.056 359.889 567.811 356.257 558.556C353.637 552.015 353.749 544.697 356.568 538.239C360.825 528.712 369.521 523.707 378.874 520.234C382.525 518.889 386.221 517.971 390.001 517.062C391.92 519.883 393.58 522.818 395.248 525.792C388.561 526.606 381.12 528.733 375.204 532.003C370.205 534.766 365.628 539.078 364.166 544.772C362.914 549.649 364.214 554.635 366.816 558.84C370.975 565.561 378.048 569.883 385.626 571.686C415.02 578.68 431.553 541.059 448.16 523.598C451.862 519.706 455.641 516.79 460.219 513.988Z"/><path fill="#FEFEFE" transform="translate(-289 -327)" d="M331.926 349.704C337.741 349.515 343.514 350.754 348.741 353.311C358.431 358.119 365.093 366.737 368.466 376.892C371.111 384.858 371.751 393.58 367.933 401.246C372.469 407.115 373.349 412.217 374.522 419.36C371.003 416.823 367.268 415.545 363.222 414.071C359.493 404.473 352.649 399.737 344.547 393.968C349.773 393.044 354.075 391.699 359.404 393.011L360.774 393.527C361.563 392.596 361.378 393.074 361.524 391.835C362.381 384.57 358.178 375.213 353.664 369.646C348.95 363.831 342.488 360.077 334.948 359.445C330.174 359.044 325.156 359.887 321.506 363.202C319.158 365.335 317.738 368.289 317.676 371.473C317.594 375.712 319.753 379.272 322.684 382.139C319.799 383.934 317.241 385.644 314.768 387.988C311.418 383.777 308.823 379.348 308.226 373.88C307.541 368.083 309.282 362.261 313.036 357.791C317.955 352.014 324.754 350.411 331.926 349.704Z"/><path fill="#FEFEFE" transform="translate(-289 -327)" d="M396.011 431.435C401.722 438.441 406.269 446.99 411.322 454.525L451.45 514.797C450.173 515.989 448.8 516.983 447.384 518.003C443.927 516.366 438.517 515.49 436.32 512.288C426.843 497.798 417.546 482.835 407.296 468.893C407.529 476.45 407.39 484.044 407.393 491.606C403.872 488.923 400.426 486.535 396.248 484.983C395.777 467.186 395.744 449.235 396.011 431.435Z"/><path fill="#FEFEFE" transform="translate(-289 -327)" d="M509.702 496.464C510.109 496.519 509.85 496.442 510.332 496.975C509.562 499.091 508.255 500.819 507.249 502.811C506.054 505.174 505.21 508.063 503.663 510.202C499.96 515.323 494.511 519.184 490.702 524.44C480.888 537.98 473.661 557.874 458.417 566.224C449.919 570.879 441.942 570.093 433.098 567.44C432.107 567.046 431.876 567.171 431.333 566.201C432.486 563.569 435.045 561.287 436.799 558.936C442.179 560.261 447.273 560.803 452.557 558.645C466.247 553.056 476.462 527.637 485.885 515.864C492.58 507.499 500.405 501.686 509.702 496.464Z"/><path fill="#FEFEFE" transform="translate(-289 -327)" d="M373.752 497.616C376.105 497.468 378.457 497.32 380.809 497.579C401.678 499.876 407.385 521.682 415.194 537.396C417.332 541.7 419.865 545.497 422.813 549.282C420.625 551.502 418.56 553.876 416.45 556.173C411.802 551.357 408.756 545.599 405.808 539.655C401.7 530.005 397.941 518.692 389.948 511.515C386.582 508.492 382.38 506.035 377.701 506.458C374.962 506.705 371.767 508.125 370.052 510.335C367.861 513.16 368.289 516.727 368.714 520.031C366.427 521.345 364.277 522.876 362.101 524.364C361.166 523.051 360.171 521.601 359.598 520.091C358.074 516.076 358.641 511.331 360.556 507.554C363.388 501.968 368.051 499.44 373.752 497.616Z"/><path fill="#FEFEFE" transform="translate(-289 -327)" d="M352.796 378.733C353.768 378.63 353.746 378.777 354.549 379.241C355.988 381.887 356.504 384.93 357.206 387.84C354.204 387.943 351.246 388.069 348.271 388.521C339.409 389.868 327.439 392.814 321.993 400.588C319.761 403.71 318.918 407.615 319.662 411.38C321.162 419.18 328.159 424.464 334.33 428.653C332.436 431.137 330.783 433.873 329.066 436.487C328.088 435.798 327.115 435.101 326.147 434.398C318.37 428.729 311.182 421.236 309.836 411.264C309.005 405.082 310.797 398.834 314.779 394.032C323.841 382.92 339.302 379.893 352.796 378.733Z"/><path fill="#FEFEFE" transform="translate(-289 -327)" d="M373.158 486.685C380.543 485.409 389.366 486.369 396.198 489.481C405.842 493.874 410.974 500.916 414.646 510.595L406.514 510.476C403.328 505.166 398.958 501.231 394.047 497.569C386.274 493.384 377.679 491.742 369.141 494.723C365.551 495.977 362.179 497.866 358.652 499.292C355.362 500.622 351.841 501.539 348.433 502.525C348.6 498.938 349.112 495.583 349.822 492.065C357.398 489.484 365.217 487.681 373.158 486.685Z"/><path fill="#FEFEFE" transform="translate(-289 -327)" d="M374.781 536.909C382.502 541.976 393.421 544.478 402.537 542.937C404.047 545.947 405.781 548.71 407.644 551.513L402.116 552.417C389.571 553.143 379.112 550.655 368.484 543.725C370.345 541.252 372.613 539.111 374.781 536.909Z"/><path fill="#FEFEFE" transform="translate(-289 -327)" d="M409.09 514.679C421.74 514.399 433.175 516.146 444.742 521.345L441.528 524.823L438.616 528.707C430.179 525.889 422.661 524.361 413.766 524.001C412.454 520.796 410.65 517.772 409.09 514.679Z"/><path fill="#FEFEFE" transform="translate(-289 -327)" d="M343.577 423.908L353.771 428.203C347.047 432.579 340.508 441.546 337.989 449.097L337.758 449.802L336.904 450.199C333.533 450.688 330.242 451.622 326.945 452.461C329.858 441.419 336.206 432.481 343.577 423.908Z"/><path fill="#FEFEFE" transform="translate(-289 -327)" d="M326.635 521.782L332.666 523.953C332.679 531.457 333.396 540.014 332.285 547.398C331.053 548.26 329.147 548.004 327.691 548.031C325.675 548.005 323.653 547.881 321.638 547.798C321.32 537.499 320.137 530.654 326.635 521.782Z"/><path fill="#FEFEFE" transform="translate(-289 -327)" d="M331.129 362.974L331.896 363.316C333.172 365.934 332.395 374.473 332.383 377.897C330.432 378.609 327.546 380.133 325.502 379.636C324.352 378.209 323.244 376.829 322.597 375.093C321.782 372.907 321.625 370.649 322.691 368.524C324.406 365.103 327.755 364.072 331.129 362.974Z"/><path fill="#FEFEFE" transform="translate(-289 -327)" d="M359.654 430.971C362.584 432.031 364.55 434.691 366.548 436.955C362.554 440.397 359.259 442.094 353.921 442.649C351.304 442.64 348.67 442.493 346.053 442.405C348.603 438.472 351.132 435.083 355.619 433.336C357.006 432.796 358.019 432.198 359.212 431.308C359.361 431.197 359.507 431.083 359.654 430.971Z"/><path fill="#FEFEFE" transform="translate(-289 -327)" d="M406.774 555.63L407.615 555.899C408.217 558.355 407.736 561.344 407.601 563.867C404.155 565.601 400.726 567.148 397.129 568.541L396.402 568.016C395.952 564.46 396.078 560.757 396.028 557.17C399.681 556.922 403.182 556.322 406.774 555.63Z"/><path fill="#FEFEFE" transform="translate(-289 -327)" d="M458.987 532.286C461.662 533.989 464.221 535.891 466.805 537.73C464.849 540.715 462.764 543.555 460.594 546.388C458.066 543.684 455.474 541.326 452.434 539.212C454.66 536.949 456.807 534.594 458.987 532.286Z"/><path fill="#FEFEFE" transform="translate(-289 -327)" d="M328.345 485.719C330.19 485.518 332.194 485.649 334.058 485.626C333.236 487.984 332.329 493.642 330.59 495.191C329.94 495.202 329.288 495.216 328.637 495.204C326.93 495.174 326.192 494.964 325.057 493.676C323.205 491.573 323.143 489.193 323.332 486.559C324.472 485.741 326.895 485.848 328.345 485.719Z"/><path fill="#FEFEFE" transform="translate(-289 -327)" d="M369.82 549.513C372.742 550.631 375.616 552.351 378.413 553.775L376.369 562.36L376.045 562.622C373.499 561.953 370.485 557.441 368.854 555.388L369.82 549.513Z"/></g></svg>